{
  "accessors": [
    {
      "bufferView": 2,
      "componentType": 5126,
      "count": 2923,
      "max": [
        -3.3303260803222656,
        1.2952200174331665,
        1.178712010383606
      ],
      "min": [
        -5.728190898895264,
        -1.032251000404358,
        -1.2015010118484497
      ],
      "type": "VEC3"
    },
    {
      "bufferView": 2,
      "byteOffset": 35076,
      "componentType": 5126,
      "count": 2923,
      "max": [
        0.9999979734420776,
        0.9999901056289673,
        0.9999983310699463
      ],
      "min": [
        -0.9999332427978516,
        -1.0,
        -0.9999904632568359
      ],
      "type": "VEC3"
    },
    {
      "bufferView": 3,
      "componentType": 5126,
      "count": 2923,
      "max": [
        1.0,
        0.9999887943267822,
        0.9999666810035706,
        1.0
      ],
      "min": [
        -0.9999611973762512,
        -0.9999999403953552,
        -0.9994281530380249,
        1.0
      ],
      "type": "VEC4"
    },
    {
      "bufferView": 1,
      "componentType": 5126,
      "count": 2923,
      "max": [
        1.003851056098938,
        0.993058979511261
      ],
      "min": [
        0.25127100944519043,
        0.0037789999041706324
      ],
      "type": "VEC2"
    },
    {
      "bufferView": 0,
      "componentType": 5125,
      "count": 16032,
      "type": "SCALAR"
    },
    {
      "bufferView": 2,
      "byteOffset": 70152,
      "componentType": 5126,
      "count": 2121,
      "max": [
        1.2049200534820557,
        1.1296279430389404,
        1.1820499897003174
      ],
      "min": [
        -1.1929450035095215,
        -1.032251000404358,
        -1.2015010118484497
      ],
      "type": "VEC3"
    },
    {
      "bufferView": 2,
      "byteOffset": 95604,
      "componentType": 5126,
      "count": 2121,
      "max": [
        1.0,
        1.0,
        0.9999997615814209
      ],
      "min": [
        -0.9999998807907104,
        -1.0,
        -1.0
      ],
      "type": "VEC3"
    },
    {
      "bufferView": 3,
      "byteOffset": 46768,
      "componentType": 5126,
      "count": 2121,
      "max": [
        1.0,
        0.9999998211860657,
        0.9999391436576843,
        1.0
      ],
      "min": [
        -1.0,
        -1.0,
        -0.9999984502792358,
        1.0
      ],
      "type": "VEC4"
    },
    {
      "bufferView": 1,
      "byteOffset": 23384,
      "componentType": 5126,
      "count": 2121,
      "max": [
        0.9879220128059387,
        0.9965890049934387
      ],
      "min": [
        0.004542000126093626,
        0.013389999978244305
      ],
      "type": "VEC2"
    },
    {
      "bufferView": 0,
      "byteOffset": 64128,
      "componentType": 5125,
      "count": 11760,
      "type": "SCALAR"
    },
    {
      "bufferView": 2,
      "byteOffset": 121056,
      "componentType": 5126,
      "count": 2121,
      "max": [
        1.2049200534820557,
        1.1263710260391235,
        1.1923480033874512
      ],
      "min": [
        -1.1940829753875732,
        -1.0341529846191406,
        -1.194478988647461
      ],
      "type": "VEC3"
    },
    {
      "bufferView": 2,
      "byteOffset": 146508,
      "componentType": 5126,
      "count": 2121,
      "max": [
        1.0,
        0.9999982118606567,
        0.9999978542327881
      ],
      "min": [
        -0.9999938607215881,
        -1.0,
        -0.9999971389770508
      ],
      "type": "VEC3"
    },
    {
      "bufferView": 3,
      "byteOffset": 80704,
      "componentType": 5126,
      "count": 2121,
      "max": [
        1.0,
        0.9999997615814209,
        0.999937117099762,
        1.0
      ],
      "min": [
        -0.9999963641166687,
        -0.9999996423721313,
        -0.999805748462677,
        1.0
      ],
      "type": "VEC4"
    },
    {
      "bufferView": 1,
      "byteOffset": 40352,
      "componentType": 5126,
      "count": 2121,
      "max": [
        0.9516209959983826,
        0.9917160272598267
      ],
      "min": [
        0.004674000199884176,
        0.013353000394999981
      ],
      "type": "VEC2"
    },
    {
      "bufferView": 0,
      "byteOffset": 111168,
      "componentType": 5125,
      "count": 11760,
      "type": "SCALAR"
    }
  ],
  "asset": {
    "extras": {
      "author": "Just8 (https://sketchfab.com/Just8)",
      "license": "CC-BY-4.0 (http://creativecommons.org/licenses/by/4.0/)",
      "source": "https://sketchfab.com/3d-models/sushi-727aee60dd2141fda9a26026a772e387",
      "title": "Sushi"
    },
    "generator": "Sketchfab-13.48.0",
    "version": "2.0"
  },
  "bufferViews": [
    {
      "buffer": 0,
      "byteLength": 158208,
      "name": "floatBufferViews",
      "target": 34963
    },
    {
      "buffer": 0,
      "byteLength": 57320,
      "byteOffset": 158208,
      "byteStride": 8,
      "name": "floatBufferViews",
      "target": 34962
    },
    {
      "buffer": 0,
      "byteLength": 171960,
      "byteOffset": 215528,
      "byteStride": 12,
      "name": "floatBufferViews",
      "target": 34962
    },
    {
      "buffer": 0,
      "byteLength": 114640,
      "byteOffset": 387488,
      "byteStride": 16,
      "name": "floatBufferViews",
      "target": 34962
    }
  ],
  "buffers": [
    {
      "byteLength": 502128,
      "uri": "scene.bin"
    }
  ],
  "images": [
    {
      "uri": "textures/sushi_rolls_baseColor.jpeg"
    },
    {
      "uri": "textures/sushi_rolls_metallicRoughness.png"
    },
    {
      "uri": "textures/sushi_rolls_normal.png"
    }
  ],
  "materials": [
    {
      "doubleSided": true,
      "name": "sushi_rolls",
      "normalTexture": {
        "index": 2
      },
      "occlusionTexture": {
        "index": 1
      },
      "pbrMetallicRoughness": {
        "baseColorTexture": {
          "index": 0
        },
        "metallicRoughnessTexture": {
          "index": 1
        }
      }
    }
  ],
  "meshes": [
    {
      "name": "defaultMaterial",
      "primitives": [
        {
          "attributes": {
            "NORMAL": 1,
            "POSITION": 0,
            "TANGENT": 2,
            "TEXCOORD_0": 3
          },
          "indices": 4,
          "material": 0,
          "mode": 4
        }
      ]
    },
    {
      "name": "defaultMaterial",
      "primitives": [
        {
          "attributes": {
            "NORMAL": 6,
            "POSITION": 5,
            "TANGENT": 7,
            "TEXCOORD_0": 8
          },
          "indices": 9,
          "material": 0,
          "mode": 4
        }
      ]
    },
    {
      "name": "defaultMaterial",
      "primitives": [
        {
          "attributes": {
            "NORMAL": 11,
            "POSITION": 10,
            "TANGENT": 12,
            "TEXCOORD_0": 13
          },
          "indices": 14,
          "material": 0,
          "mode": 4
        }
      ]
    }
  ],
  "nodes": [
    {
      "children": [
        1
      ],
      "matrix": [
        1.0,
        0.0,
        0.0,
        0.0,
        0.0,
        2.220446049250313e-16,
        -1.0,
        0.0,
        0.0,
        1.0,
        2.220446049250313e-16,
        0.0,
        0.0,
        0.0,
        0.0,
        1.0
      ],
      "name": "Sketchfab_model"
    },
    {
      "children": [
        2,
        4,
        7
      ],
      "matrix": [
        1.0,
        0.0,
        0.0,
        0.0,
        0.0,
        -4.371139006309477e-08,
        0.999999999999999,
        0.0,
        0.0,
        -0.999999999999999,
        -4.371139006309477e-08,
        0.0,
        0.0,
        0.0,
        0.0,
        1.0
      ],
      "name": "Collada visual scene group"
    },
    {
      "children": [
        3
      ],
      "name": "group2_pasted__pCylinder1"
    },
    {
      "mesh": 0,
      "name": "defaultMaterial"
    },
    {
      "children": [
        5
      ],
      "name": "group1"
    },
    {
      "children": [
        6
      ],
      "matrix": [
        1.0,
        0.0,
        0.0,
        0.0,
        0.0,
        1.0,
        0.0,
        0.0,
        0.0,
        0.0,
        1.0,
        0.0,
        4.526489,
        0.0,
        0.0,
        1.0
      ],
      "name": "pasted__pCube4"
    },
    {
      "mesh": 1,
      "name": "defaultMaterial"
    },
    {
      "children": [
        8
      ],
      "name": "group"
    },
    {
      "children": [
        9
      ],
      "name": "pasted__pCube4"
    },
    {
      "mesh": 2,
      "name": "defaultMaterial"
    }
  ],
  "samplers": [
    {
      "magFilter": 9729,
      "minFilter": 9987,
      "wrapS": 10497,
      "wrapT": 10497
    }
  ],
  "scene": 0,
  "scenes": [
    {
      "name": "Sketchfab_Scene",
      "nodes": [
        0
      ]
    }
  ],
  "textures": [
    {
      "sampler": 0,
      "source": 0
    },
    {
      "sampler": 0,
      "source": 1
    },
    {
      "sampler": 0,
      "source": 2
    }
  ]
}
