{
  "accessors": [
    {
      "bufferView": 2,
      "componentType": 5126,
      "count": 114,
      "max": [
        1.0,
        1.0,
        1.0
      ],
      "min": [
        -1.0,
        -1.0,
        0.09456562995910645
      ],
      "type": "VEC3"
    },
    {
      "bufferView": 2,
      "byteOffset": 1368,
      "componentType": 5126,
      "count": 114,
      "max": [
        1.0,
        1.0,
        1.0
      ],
      "min": [
        -1.0,
        -1.0,
        -1.0
      ],
      "type": "VEC3"
    },
    {
      "bufferView": 1,
      "componentType": 5126,
      "count": 114,
      "max": [
        0.9788611531257629,
        0.9803910255432129
      ],
      "min": [
        0.03390362858772278,
        0.3089815676212311
      ],
      "type": "VEC2"
    },
    {
      "bufferView": 0,
      "componentType": 5125,
      "count": 228,
      "type": "SCALAR"
    },
    {
      "bufferView": 2,
      "byteOffset": 2736,
      "componentType": 5126,
      "count": 480,
      "max": [
        5.986392974853516,
        2.957944869995117,
        1.02861750125885
      ],
      "min": [
        -2.655440092086792,
        -2.777179002761841,
        -1.158355951309204
      ],
      "type": "VEC3"
    },
    {
      "bufferView": 2,
      "byteOffset": 8496,
      "componentType": 5126,
      "count": 480,
      "max": [
        1.0,
        0.986327588558197,
        0.9965936541557312
      ],
      "min": [
        -0.9964662790298462,
        -0.9910613894462585,
        -1.0
      ],
      "type": "VEC3"
    },
    {
      "bufferView": 3,
      "componentType": 5126,
      "count": 480,
      "max": [
        0.9997708797454834,
        1.0,
        0.1316308230161667,
        1.0
      ],
      "min": [
        -0.9844945669174194,
        -0.9964663982391357,
        -0.1336570680141449,
        -1.0
      ],
      "type": "VEC4"
    },
    {
      "bufferView": 1,
      "byteOffset": 912,
      "componentType": 5126,
      "count": 480,
      "max": [
        0.9976654052734375,
        0.9802520871162415
      ],
      "min": [
        0.0015469789505004883,
        0.004082664847373962
      ],
      "type": "VEC2"
    },
    {
      "bufferView": 0,
      "byteOffset": 912,
      "componentType": 5125,
      "count": 864,
      "type": "SCALAR"
    },
    {
      "bufferView": 2,
      "byteOffset": 14256,
      "componentType": 5126,
      "count": 4,
      "max": [
        1.0,
        1.0,
        0.0
      ],
      "min": [
        -1.0,
        -1.0,
        0.0
      ],
      "type": "VEC3"
    },
    {
      "bufferView": 2,
      "byteOffset": 14304,
      "componentType": 5126,
      "count": 4,
      "max": [
        0.0,
        0.0,
        1.0
      ],
      "min": [
        0.0,
        0.0,
        1.0
      ],
      "type": "VEC3"
    },
    {
      "bufferView": 1,
      "byteOffset": 4752,
      "componentType": 5126,
      "count": 4,
      "max": [
        1.0,
        1.0
      ],
      "min": [
        0.0,
        0.0
      ],
      "type": "VEC2"
    },
    {
      "bufferView": 0,
      "byteOffset": 4368,
      "componentType": 5125,
      "count": 6,
      "type": "SCALAR"
    },
    {
      "bufferView": 2,
      "byteOffset": 14352,
      "componentType": 5126,
      "count": 56,
      "max": [
        1.1940722465515137,
        1.2230620384216309,
        0.18269824981689453
      ],
      "min": [
        -1.210252285003662,
        -1.2099096775054932,
        -0.3424311876296997
      ],
      "type": "VEC3"
    },
    {
      "bufferView": 2,
      "byteOffset": 15024,
      "componentType": 5126,
      "count": 56,
      "max": [
        0.7124315500259399,
        0.7073142528533936,
        1.0
      ],
      "min": [
        -0.7124316692352295,
        -0.7073179483413696,
        -1.0
      ],
      "type": "VEC3"
    },
    {
      "bufferView": 1,
      "byteOffset": 4784,
      "componentType": 5126,
      "count": 56,
      "max": [
        1.0,
        1.0
      ],
      "min": [
        0.0,
        0.0
      ],
      "type": "VEC2"
    },
    {
      "bufferView": 0,
      "byteOffset": 4392,
      "componentType": 5125,
      "count": 84,
      "type": "SCALAR"
    },
    {
      "bufferView": 2,
      "byteOffset": 15696,
      "componentType": 5126,
      "count": 48,
      "max": [
        0.4398488998413086,
        0.5466722846031189,
        1.3501068353652954
      ],
      "min": [
        -0.30340448021888733,
        -0.5585818290710449,
        -1.1450047492980957
      ],
      "type": "VEC3"
    },
    {
      "bufferView": 2,
      "byteOffset": 16272,
      "componentType": 5126,
      "count": 48,
      "max": [
        0.9658980369567871,
        0.8771117329597473,
        0.19065158069133759
      ],
      "min": [
        -0.9727778434753418,
        -0.8771100640296936,
        -0.19553646445274353
      ],
      "type": "VEC3"
    },
    {
      "bufferView": 1,
      "byteOffset": 5232,
      "componentType": 5126,
      "count": 48,
      "max": [
        0.875,
        1.0
      ],
      "min": [
        0.125,
        0.0
      ],
      "type": "VEC2"
    },
    {
      "bufferView": 0,
      "byteOffset": 4728,
      "componentType": 5125,
      "count": 72,
      "type": "SCALAR"
    }
  ],
  "asset": {
    "extras": {
      "author": "Wersaus33 (https://sketchfab.com/wersaus33)",
      "license": "CC-BY-4.0 (http://creativecommons.org/licenses/by/4.0/)",
      "source": "https://sketchfab.com/3d-models/futomaki-sushi-ps1-low-poly-5df07e2476f84bd3acba7ffe5b9babda",
      "title": "Futomaki Sushi - PS1 Low Poly"
    },
    "generator": "Sketchfab-15.10.0",
    "version": "2.0"
  },
  "bufferViews": [
    {
      "buffer": 0,
      "byteLength": 5016,
      "name": "floatBufferViews",
      "target": 34963
    },
    {
      "buffer": 0,
      "byteLength": 5616,
      "byteOffset": 5016,
      "byteStride": 8,
      "name": "floatBufferViews",
      "target": 34962
    },
    {
      "buffer": 0,
      "byteLength": 16848,
      "byteOffset": 10632,
      "byteStride": 12,
      "name": "floatBufferViews",
      "target": 34962
    },
    {
      "buffer": 0,
      "byteLength": 7680,
      "byteOffset": 27480,
      "byteStride": 16,
      "name": "floatBufferViews",
      "target": 34962
    }
  ],
  "buffers": [
    {
      "byteLength": 35160,
      "uri": "scene.bin"
    }
  ],
  "extensionsUsed": [
    "KHR_materials_specular"
  ],
  "images": [
    {
      "uri": "textures/cuttingboard_baseColor.jpeg"
    },
    {
      "uri": "textures/sushi_baseColor.png"
    },
    {
      "uri": "textures/sushi_normal.png"
    }
  ],
  "materials": [
    {
      "doubleSided": true,
      "name": "cuttingboard",
      "pbrMetallicRoughness": {
        "baseColorTexture": {
          "index": 0
        },
        "metallicFactor": 0.0,
        "roughnessFactor": 0.8211145618000169
      }
    },
    {
      "doubleSided": true,
      "extensions": {
        "KHR_materials_specular": {
          "specularColorFactor": [
            1.0,
            1.0,
            1.0
          ],
          "specularFactor": 0.3154295327376236
        }
      },
      "name": "sushi",
      "normalTexture": {
        "index": 2
      },
      "pbrMetallicRoughness": {
        "baseColorTexture": {
          "index": 1
        },
        "metallicFactor": 0.10209554924357864,
        "roughnessFactor": 0.28228352695932035
      }
    },
    {
      "doubleSided": true,
      "extensions": {
        "KHR_materials_specular": {
          "specularColorFactor": [
            1.0,
            1.0,
            1.0
          ],
          "specularFactor": 1.0
        }
      },
      "name": "material",
      "pbrMetallicRoughness": {
        "baseColorFactor": [
          0.0,
          0.0,
          0.0,
          1.0
        ],
        "metallicFactor": 0.8030500664382977,
        "roughnessFactor": 0.10819080591483707
      }
    },
    {
      "doubleSided": true,
      "name": "ceramic",
      "pbrMetallicRoughness": {
        "baseColorFactor": [
          0.8,
          0.8,
          0.8,
          1.0
        ],
        "metallicFactor": 0.0,
        "roughnessFactor": 0.8211145618000169
      }
    },
    {
      "doubleSided": true,
      "name": "stick",
      "pbrMetallicRoughness": {
        "baseColorFactor": [
          0.761272,
          0.595951,
          0.301604,
          1.0
        ],
        "metallicFactor": 0.0,
        "roughnessFactor": 0.8636342013443871
      }
    }
  ],
  "meshes": [
    {
      "name": "board_cuttingboard_0",
      "primitives": [
        {
          "attributes": {
            "NORMAL": 1,
            "POSITION": 0,
            "TEXCOORD_0": 2
          },
          "indices": 3,
          "material": 0,
          "mode": 4
        }
      ]
    },
    {
      "name": "Cylinder.001_sushi_0",
      "primitives": [
        {
          "attributes": {
            "NORMAL": 5,
            "POSITION": 4,
            "TANGENT": 6,
            "TEXCOORD_0": 7
          },
          "indices": 8,
          "material": 1,
          "mode": 4
        }
      ]
    },
    {
      "name": "Plane.001_soy_0",
      "primitives": [
        {
          "attributes": {
            "NORMAL": 10,
            "POSITION": 9,
            "TEXCOORD_0": 11
          },
          "indices": 12,
          "material": 2,
          "mode": 4
        }
      ]
    },
    {
      "name": "Plane.001_ceramic_0",
      "primitives": [
        {
          "attributes": {
            "NORMAL": 14,
            "POSITION": 13,
            "TEXCOORD_0": 15
          },
          "indices": 16,
          "material": 3,
          "mode": 4
        }
      ]
    },
    {
      "name": "Cylinder.010_stick_0",
      "primitives": [
        {
          "attributes": {
            "NORMAL": 18,
            "POSITION": 17,
            "TEXCOORD_0": 19
          },
          "indices": 20,
          "material": 4,
          "mode": 4
        }
      ]
    }
  ],
  "nodes": [
    {
      "children": [
        1
      ],
      "matrix": [
        1.0,
        0.0,
        0.0,
        0.0,
        0.0,
        2.220446049250313e-16,
        -1.0,
        0.0,
        0.0,
        1.0,
        2.220446049250313e-16,
        0.0,
        0.0,
        0.0,
        0.0,
        1.0
      ],
      "name": "Sketchfab_model"
    },
    {
      "children": [
        2
      ],
      "matrix": [
        0.009999999776482582,
        0.0,
        0.0,
        0.0,
        0.0,
        0.0,
        0.009999999776482582,
        0.0,
        0.0,
        -0.009999999776482582,
        0.0,
        0.0,
        0.0,
        0.0,
        0.0,
        1.0
      ],
      "name": "9d767ba445a842faa87c9e56f42838a3.fbx"
    },
    {
      "children": [
        3,
        5,
        7,
        10
      ],
      "name": "RootNode"
    },
    {
      "children": [
        4
      ],
      "matrix": [
        558.818359375,
        0.0,
        0.0,
        0.0,
        0.0,
        -6.381040386531455e-05,
        -391.6654663085886,
        0.0,
        0.0,
        28.34741401672326,
        -4.618379950606139e-06,
        0.0,
        2.4904706478118896,
        -1.503261923789978,
        35.46775817871094,
        1.0
      ],
      "name": "board"
    },
    {
      "mesh": 0,
      "name": "board_cuttingboard_0"
    },
    {
      "children": [
        6
      ],
      "matrix": [
        81.229162354585,
        0.0,
        58.325150519929835,
        0.0,
        58.32515051992978,
        -4.371139006309477e-06,
        -81.22916235458493,
        0.0,
        1.0307991765359147e-06,
        40.43184661865231,
        -1.4355891588947278e-06,
        0.0,
        70.08043670654297,
        70.25486755371094,
        -72.52469635009766,
        1.0
      ],
      "name": "Cylinder.001"
    },
    {
      "mesh": 1,
      "name": "Cylinder.001_sushi_0"
    },
    {
      "children": [
        8,
        9
      ],
      "matrix": [
        76.7559850625547,
        -1.640208654369031e-06,
        -37.89777844003552,
        0.0,
        -56.3259382119472,
        -1.9524268827300777e-05,
        -114.07932206029629,
        0.0,
        -6.476124234289218e-06,
        127.58541107177582,
        -1.8638242661465964e-05,
        0.0,
        -201.78277587890625,
        75.25994873046875,
        181.44334411621094,
        1.0
      ],
      "name": "Plane.001"
    },
    {
      "mesh": 2,
      "name": "Plane.001_soy_0"
    },
    {
      "mesh": 3,
      "name": "Plane.001_ceramic_0"
    },
    {
      "children": [
        11
      ],
      "matrix": [
        541.334697177001,
        -105.00191224029612,
        71.9600956900035,
        0.0,
        99.51243448932175,
        132.6894514982469,
        -554.9865806215029,
        0.0,
        15.266101994353345,
        96.37027855886008,
        25.778076221784765,
        0.0,
        -67.28394317626953,
        41.42429733276367,
        33.87175369262695,
        1.0
      ],
      "name": "Cylinder.010"
    },
    {
      "mesh": 4,
      "name": "Cylinder.010_stick_0"
    }
  ],
  "samplers": [
    {
      "magFilter": 9728,
      "minFilter": 9728,
      "wrapS": 10497,
      "wrapT": 10497
    },
    {
      "magFilter": 9729,
      "minFilter": 9987,
      "wrapS": 10497,
      "wrapT": 10497
    }
  ],
  "scene": 0,
  "scenes": [
    {
      "name": "Sketchfab_Scene",
      "nodes": [
        0
      ]
    }
  ],
  "textures": [
    {
      "sampler": 0,
      "source": 0
    },
    {
      "sampler": 0,
      "source": 1
    },
    {
      "sampler": 1,
      "source": 2
    }
  ]
}
