{
  "accessors": [
    {
      "bufferView": 2,
      "componentType": 5126,
      "count": 7620,
      "max": [
        0.29299136996269226,
        0.23110522329807281,
        0.12389682978391647
      ],
      "min": [
        -0.29201337695121765,
        -0.19375209510326385,
        -0.11691389232873917
      ],
      "type": "VEC3"
    },
    {
      "bufferView": 2,
      "byteOffset": 91440,
      "componentType": 5126,
      "count": 7620,
      "max": [
        0.9999859929084778,
        0.9997304081916809,
        0.9999983310699463
      ],
      "min": [
        -0.9999276399612427,
        -0.999977707862854,
        -0.9999943971633911
      ],
      "type": "VEC3"
    },
    {
      "bufferView": 3,
      "componentType": 5126,
      "count": 7620,
      "max": [
        0.8500185012817383,
        0.9999380111694336,
        0.9999991655349731,
        1.0
      ],
      "min": [
        -0.9999678134918213,
        -0.9999491572380066,
        -0.9999980926513672,
        1.0
      ],
      "type": "VEC4"
    },
    {
      "bufferView": 1,
      "componentType": 5126,
      "count": 7620,
      "max": [
        0.9994211792945862,
        0.9584853649139404
      ],
      "min": [
        0.0005788267008028924,
        0.0005788060952909291
      ],
      "type": "VEC2"
    },
    {
      "bufferView": 1,
      "byteOffset": 60960,
      "componentType": 5126,
      "count": 7620,
      "max": [
        0.9994211792945862,
        0.9584853649139404
      ],
      "min": [
        0.0005788267008028924,
        0.0005788060952909291
      ],
      "type": "VEC2"
    },
    {
      "bufferView": 1,
      "byteOffset": 121920,
      "componentType": 5126,
      "count": 7620,
      "max": [
        0.9994211792945862,
        0.9584853649139404
      ],
      "min": [
        0.0005788267008028924,
        0.0005788060952909291
      ],
      "type": "VEC2"
    },
    {
      "bufferView": 0,
      "componentType": 5125,
      "count": 40668,
      "type": "SCALAR"
    }
  ],
  "asset": {
    "extras": {
      "author": "UmangRank (https://sketchfab.com/UmangRank)",
      "license": "CC-BY-4.0 (http://creativecommons.org/licenses/by/4.0/)",
      "source": "https://sketchfab.com/3d-models/sushi-4012e8f4e2b4427c8334057a02b237ef",
      "title": "Sushi"
    },
    "generator": "Sketchfab-16.16.0",
    "version": "2.0"
  },
  "bufferViews": [
    {
      "buffer": 0,
      "byteLength": 162672,
      "name": "floatBufferViews",
      "target": 34963
    },
    {
      "buffer": 0,
      "byteLength": 182880,
      "byteOffset": 162672,
      "byteStride": 8,
      "name": "floatBufferViews",
      "target": 34962
    },
    {
      "buffer": 0,
      "byteLength": 182880,
      "byteOffset": 345552,
      "byteStride": 12,
      "name": "floatBufferViews",
      "target": 34962
    },
    {
      "buffer": 0,
      "byteLength": 121920,
      "byteOffset": 528432,
      "byteStride": 16,
      "name": "floatBufferViews",
      "target": 34962
    }
  ],
  "buffers": [
    {
      "byteLength": 650352,
      "uri": "scene.bin"
    }
  ],
  "images": [
    {
      "uri": "textures/base_material_baseColor.jpeg"
    },
    {
      "uri": "textures/base_material_metallicRoughness.png"
    },
    {
      "uri": "textures/base_material_normal.png"
    }
  ],
  "materials": [
    {
      "doubleSided": true,
      "name": "base_material",
      "normalTexture": {
        "index": 2
      },
      "pbrMetallicRoughness": {
        "baseColorTexture": {
          "index": 0
        },
        "metallicRoughnessTexture": {
          "index": 1
        }
      }
    }
  ],
  "meshes": [
    {
      "name": "mesh_base_material_0",
      "primitives": [
        {
          "attributes": {
            "NORMAL": 1,
            "POSITION": 0,
            "TANGENT": 2,
            "TEXCOORD_0": 3,
            "TEXCOORD_1": 4,
            "TEXCOORD_2": 5
          },
          "indices": 6,
          "material": 0,
          "mode": 4
        }
      ]
    }
  ],
  "nodes": [
    {
      "children": [
        1
      ],
      "matrix": [
        1.0,
        0.0,
        0.0,
        0.0,
        0.0,
        2.220446049250313e-16,
        -1.0,
        0.0,
        0.0,
        1.0,
        2.220446049250313e-16,
        0.0,
        0.0,
        0.0,
        0.0,
        1.0
      ],
      "name": "Sketchfab_model"
    },
    {
      "children": [
        2
      ],
      "matrix": [
        0.009999999776482582,
        0.0,
        0.0,
        0.0,
        0.0,
        0.0,
        0.009999999776482582,
        0.0,
        0.0,
        -0.009999999776482582,
        0.0,
        0.0,
        0.0,
        0.0,
        0.0,
        1.0
      ],
      "name": "27ba5481a3da_Sushi_min.fbx"
    },
    {
      "children": [
        3
      ],
      "name": "RootNode"
    },
    {
      "children": [
        4
      ],
      "matrix": [
        170.89617919921875,
        0.0,
        0.0,
        0.0,
        0.0,
        170.89617919921858,
        7.470109245696996e-06,
        0.0,
        0.0,
        -7.470109245696996e-06,
        170.89617919921858,
        0.0,
        0.0,
        0.0,
        0.0,
        1.0
      ],
      "name": "mesh"
    },
    {
      "mesh": 0,
      "name": "mesh_base_material_0"
    }
  ],
  "samplers": [
    {
      "magFilter": 9729,
      "minFilter": 9987,
      "wrapS": 10497,
      "wrapT": 10497
    }
  ],
  "scene": 0,
  "scenes": [
    {
      "name": "Sketchfab_Scene",
      "nodes": [
        0
      ]
    }
  ],
  "textures": [
    {
      "sampler": 0,
      "source": 0
    },
    {
      "sampler": 0,
      "source": 1
    },
    {
      "sampler": 0,
      "source": 2
    }
  ]
}
